<?xml version="1.0" encoding="UTF-8"?> <!-- Generator: Adobe Illustrator 22.1.0, SVG Export Plug-In . SVG Version: 6.00 Build 0) --> <svg xmlns="http://www.w3.org/2000/svg" xmlns:xlink="http://www.w3.org/1999/xlink" id="Capa_1" x="0px" y="0px" viewBox="0 0 512 512" style="enable-background:new 0 0 512 512;" xml:space="preserve"> <style type="text/css"> .st0{fill:#2E7DE1;} </style> <g> <g> <path class="st0" d="M81.4,329.9c-0.8,0-1.6-0.2-2.4-0.6l-62.2-33.7c-1.6-0.9-2.6-2.6-2.6-4.4v-70.3c0-1.8,0.9-3.4,2.4-4.3 c1.5-0.9,3.4-0.9,4.9-0.1l62.2,33.7c1.6,0.9,2.6,2.6,2.6,4.4v70.3c0,1.8-0.9,3.4-2.4,4.3C83.2,329.6,82.3,329.9,81.4,329.9z M24.2,288.2l52.2,28.3v-58.9l-52.2-28.3V288.2z"></path> <path class="st0" d="M81.4,329.9c-0.9,0-1.8-0.2-2.6-0.7c-1.5-0.9-2.4-2.5-2.4-4.3v-70.3c0-1.8,1-3.5,2.6-4.4l62.2-33.7 c1.5-0.8,3.4-0.8,4.9,0.1c1.5,0.9,2.4,2.5,2.4,4.3v70.3c0,1.8-1,3.5-2.6,4.4l-62.2,33.7C83,329.7,82.2,329.9,81.4,329.9z M86.4,257.6v58.9l52.2-28.3v-58.9L86.4,257.6z"></path> <path class="st0" d="M81.4,259.6c-0.8,0-1.6-0.2-2.4-0.6l-62.2-33.7c-1.6-0.9-2.6-2.6-2.6-4.4s1-3.5,2.6-4.4L79,182.7 c1.5-0.8,3.3-0.8,4.8,0l62.2,33.7c1.6,0.9,2.6,2.6,2.6,4.4s-1,3.5-2.6,4.4L83.8,259C83,259.4,82.2,259.6,81.4,259.6z M29.6,220.9 l51.8,28l51.8-28l-51.8-28L29.6,220.9z"></path> </g> <g> <path class="st0" d="M430.6,329.9c-0.8,0-1.6-0.2-2.4-0.6L366,295.5c-1.6-0.9-2.6-2.6-2.6-4.4v-70.3c0-1.8,0.9-3.4,2.4-4.3 s3.4-0.9,4.9-0.1l62.2,33.7c1.6,0.9,2.6,2.6,2.6,4.4v70.3c0,1.8-0.9,3.4-2.4,4.3C432.4,329.6,431.5,329.9,430.6,329.9z M373.4,288.2l52.2,28.3v-58.9l-52.2-28.3V288.2z"></path> <path class="st0" d="M430.6,329.9c-0.9,0-1.8-0.2-2.6-0.7c-1.5-0.9-2.4-2.5-2.4-4.3v-70.3c0-1.8,1-3.5,2.6-4.4l62.2-33.7 c1.6-0.8,3.4-0.8,4.9,0.1c1.5,0.9,2.4,2.5,2.4,4.3v70.3c0,1.8-1,3.5-2.6,4.4L433,329.3C432.2,329.7,431.4,329.9,430.6,329.9z M435.6,257.6v58.9l52.2-28.3v-58.9L435.6,257.6z"></path> <path class="st0" d="M430.6,259.6c-0.8,0-1.6-0.2-2.4-0.6L366,225.3c-1.6-0.9-2.6-2.6-2.6-4.4s1-3.5,2.6-4.4l62.2-33.7 c1.5-0.8,3.3-0.8,4.8,0l62.2,33.7c1.6,0.9,2.6,2.6,2.6,4.4s-1,3.5-2.6,4.4L433,259C432.2,259.4,431.4,259.6,430.6,259.6z M378.8,220.9l51.8,28l51.8-28l-51.8-28L378.8,220.9z"></path> </g> <g> <g> <path class="st0" d="M171,191.3c-0.8,0-1.6-0.2-2.4-0.6l-62.2-33.7c-1.6-0.9-2.6-2.6-2.6-4.4V82.3c0-1.8,0.9-3.4,2.4-4.3 c1.5-0.9,3.4-0.9,4.9-0.1l62.2,33.7c1.6,0.9,2.6,2.6,2.6,4.4v70.3c0,1.8-0.9,3.4-2.4,4.3C172.7,191,171.8,191.3,171,191.3z M113.7,149.6l52.2,28.3V119l-52.2-28.3V149.6z"></path> <path class="st0" d="M171,191.3c-0.9,0-1.8-0.2-2.6-0.7c-1.5-0.9-2.4-2.5-2.4-4.3V116c0-1.8,1-3.5,2.6-4.4l62.2-33.7 c1.5-0.8,3.4-0.8,4.9,0.1c1.5,0.9,2.4,2.5,2.4,4.3v70.3c0,1.8-1,3.5-2.6,4.4l-62.2,33.7C172.6,191.1,171.8,191.3,171,191.3z M176,119v58.9l52.2-28.3V90.7L176,119z"></path> <path class="st0" d="M171,121c-0.8,0-1.6-0.2-2.4-0.6l-62.2-33.7c-1.6-0.9-2.6-2.6-2.6-4.4s1-3.5,2.6-4.4l62.2-33.7 c1.5-0.8,3.3-0.8,4.8,0l62.2,33.7c1.6,0.9,2.6,2.6,2.6,4.4s-1,3.5-2.6,4.4l-62.2,33.7C172.6,120.8,171.8,121,171,121z M119.2,82.3l51.8,28l51.8-28l-51.8-28L119.2,82.3z"></path> </g> <g> <path class="st0" d="M341.1,191.3c-0.8,0-1.6-0.2-2.4-0.6l-62.2-33.7c-1.6-0.9-2.6-2.6-2.6-4.4V82.3c0-1.8,0.9-3.4,2.4-4.3 c1.5-0.9,3.4-0.9,4.9-0.1l62.2,33.7c1.6,0.9,2.6,2.6,2.6,4.4v70.3c0,1.8-0.9,3.4-2.4,4.3C342.8,191,341.9,191.3,341.1,191.3z M283.8,149.6l52.2,28.3V119l-52.2-28.3V149.6z"></path> <path class="st0" d="M341.1,191.3c-0.9,0-1.8-0.2-2.6-0.7c-1.5-0.9-2.4-2.5-2.4-4.3V116c0-1.8,1-3.5,2.6-4.4l62.2-33.7 c1.6-0.8,3.4-0.8,4.9,0.1c1.5,0.9,2.4,2.5,2.4,4.3v70.3c0,1.8-1,3.5-2.6,4.4l-62.2,33.7C342.7,191.1,341.9,191.3,341.1,191.3z M346.1,119v58.9l52.2-28.3V90.7L346.1,119z"></path> <path class="st0" d="M341.1,121c-0.8,0-1.6-0.2-2.4-0.6l-62.2-33.7c-1.6-0.9-2.6-2.6-2.6-4.4s1-3.5,2.6-4.4l62.2-33.7 c1.5-0.8,3.3-0.8,4.8,0l62.2,33.7c1.6,0.9,2.6,2.6,2.6,4.4s-1,3.5-2.6,4.4l-62.2,33.7C342.7,120.8,341.9,121,341.1,121z M289.3,82.3l51.8,28l51.8-28l-51.8-28L289.3,82.3z"></path> </g> </g> <g> <g> <path class="st0" d="M171,468.5c-0.8,0-1.6-0.2-2.4-0.6l-62.2-33.7c-1.6-0.9-2.6-2.6-2.6-4.4v-70.3c0-1.8,0.9-3.4,2.4-4.3 c1.5-0.9,3.4-0.9,4.9-0.1l62.2,33.7c1.6,0.9,2.6,2.6,2.6,4.4v70.3c0,1.8-0.9,3.4-2.4,4.3C172.7,468.2,171.8,468.5,171,468.5z M113.7,426.8l52.2,28.3v-58.9l-52.2-28.3V426.8z"></path> <path class="st0" d="M171,468.5c-0.9,0-1.8-0.2-2.6-0.7c-1.5-0.9-2.4-2.5-2.4-4.3v-70.3c0-1.8,1-3.5,2.6-4.4l62.2-33.7 c1.5-0.8,3.4-0.8,4.9,0.1c1.5,0.9,2.4,2.5,2.4,4.3v70.3c0,1.8-1,3.5-2.6,4.4l-62.2,33.7C172.6,468.3,171.8,468.5,171,468.5z M176,396.2v58.9l52.2-28.3v-58.9L176,396.2z"></path> <path class="st0" d="M171,398.2c-0.8,0-1.6-0.2-2.4-0.6l-62.2-33.7c-1.6-0.9-2.6-2.6-2.6-4.4s1-3.5,2.6-4.4l62.2-33.7 c1.5-0.8,3.3-0.8,4.8,0l62.2,33.7c1.6,0.9,2.6,2.6,2.6,4.4s-1,3.5-2.6,4.4l-62.2,33.7C172.6,398,171.8,398.2,171,398.2z M119.2,359.5l51.8,28l51.8-28l-51.8-28L119.2,359.5z"></path> </g> <g> <path class="st0" d="M341.1,468.5c-0.8,0-1.6-0.2-2.4-0.6l-62.2-33.7c-1.6-0.9-2.6-2.6-2.6-4.4v-70.3c0-1.8,0.9-3.4,2.4-4.3 c1.5-0.9,3.4-0.9,4.9-0.1l62.2,33.7c1.6,0.9,2.6,2.6,2.6,4.4v70.3c0,1.8-0.9,3.4-2.4,4.3C342.8,468.2,341.9,468.5,341.1,468.5z M283.8,426.8l52.2,28.3v-58.9l-52.2-28.3V426.8z"></path> <path class="st0" d="M341.1,468.5c-0.9,0-1.8-0.2-2.6-0.7c-1.5-0.9-2.4-2.5-2.4-4.3v-70.3c0-1.8,1-3.5,2.6-4.4l62.2-33.7 c1.6-0.8,3.4-0.8,4.9,0.1c1.5,0.9,2.4,2.5,2.4,4.3v70.3c0,1.8-1,3.5-2.6,4.4l-62.2,33.7C342.7,468.3,341.9,468.5,341.1,468.5z M346.1,396.2v58.9l52.2-28.3v-58.9L346.1,396.2z"></path> <path class="st0" d="M341.1,398.2c-0.8,0-1.6-0.2-2.4-0.6l-62.2-33.7c-1.6-0.9-2.6-2.6-2.6-4.4s1-3.5,2.6-4.4l62.2-33.7 c1.5-0.8,3.3-0.8,4.8,0l62.2,33.7c1.6,0.9,2.6,2.6,2.6,4.4s-1,3.5-2.6,4.4l-62.2,33.7C342.7,398,341.9,398.2,341.1,398.2z M289.3,359.5l51.8,28l51.8-28l-51.8-28L289.3,359.5z"></path> </g> </g> <path class="st0" d="M256,329.9c-0.8,0-1.6-0.2-2.4-0.6l-62.2-33.7c-1.6-0.9-2.6-2.6-2.6-4.4v-70.3c0-1.8,0.9-3.4,2.4-4.3 c1.5-0.9,3.4-0.9,4.9-0.1l62.3,33.7c1.6,0.9,2.6,2.6,2.6,4.4v70.3c0,1.8-0.9,3.4-2.4,4.3C257.8,329.6,256.9,329.9,256,329.9z M198.8,288.2l52.2,28.3v-58.9l-52.2-28.3V288.2z"></path> <path class="st0" d="M256,329.9c-0.9,0-1.8-0.2-2.6-0.7c-1.5-0.9-2.4-2.5-2.4-4.3v-70.3c0-1.8,1-3.5,2.6-4.4l62.2-33.7 c1.6-0.8,3.4-0.8,4.9,0.1c1.5,0.9,2.4,2.5,2.4,4.3v70.3c0,1.8-1,3.5-2.6,4.4l-62.2,33.7C257.6,329.7,256.8,329.9,256,329.9z M261,257.6v58.9l52.2-28.3v-58.9L261,257.6z"></path> <path class="st0" d="M256,259.6c-0.8,0-1.6-0.2-2.4-0.6l-62.2-33.7c-1.6-0.9-2.6-2.6-2.6-4.4s1-3.5,2.6-4.4l62.2-33.7 c1.5-0.8,3.3-0.8,4.8,0l62.2,33.7c1.6,0.9,2.6,2.6,2.6,4.4s-1,3.5-2.6,4.4L258.4,259C257.6,259.4,256.8,259.6,256,259.6z M204.2,220.9l51.8,28l51.8-28l-51.8-28L204.2,220.9z"></path> <rect x="101.2" y="180.9" transform="matrix(0.6919 -0.722 0.722 0.6919 -96.1018 146.5043)" class="st0" width="44.9" height="10"></rect> <rect x="146.6" y="253.8" class="st0" width="43.8" height="10"></rect> <rect x="385.9" y="163.4" transform="matrix(0.722 -0.6919 0.6919 0.722 -19.917 322.1412)" class="st0" width="10" height="44.9"></rect> <rect x="233" y="391.9" class="st0" width="43.8" height="10"></rect> <rect x="321.2" y="253.8" class="st0" width="43.8" height="10"></rect> <rect x="368.5" y="321.9" transform="matrix(0.6919 -0.722 0.722 0.6919 -115.549 382.931)" class="st0" width="44.9" height="10"></rect> </g> </svg> 